<svg width="40" height="41" viewBox="0 0 40 41" fill="none" xmlns="http://www.w3.org/2000/svg">
<path d="M20.0007 4.09277C10.8173 4.09277 3.33398 11.5761 3.33398 20.7594C3.33398 29.9428 10.8173 37.4261 20.0007 37.4261C29.184 37.4261 36.6673 29.9428 36.6673 20.7594C36.6673 11.5761 29.184 4.09277 20.0007 4.09277ZM26.7673 19.5428L20.884 25.4261C20.634 25.6761 20.3173 25.7928 20.0007 25.7928C19.684 25.7928 19.3673 25.6761 19.1173 25.4261L13.234 19.5428C12.7507 19.0594 12.7507 18.2594 13.234 17.7761C13.7173 17.2928 14.5173 17.2928 15.0007 17.7761L20.0007 22.7761L25.0007 17.7761C25.484 17.2928 26.284 17.2928 26.7673 17.7761C27.2507 18.2594 27.2507 19.0428 26.7673 19.5428Z" fill="url(#paint0_linear_51_1235)" fill-opacity="0.3"/>
<defs>
<linearGradient id="paint0_linear_51_1235" x1="23.1503" y1="-6.77018" x2="-9.98812" y2="7.97502" gradientUnits="userSpaceOnUse">
<stop offset="0.253117" stop-color="#7860F2"/>
<stop offset="0.580678" stop-color="#7860F2"/>
<stop offset="1" stop-color="#1380F6"/>
</linearGradient>
</defs>
</svg>
