<svg width="43" height="46" viewBox="0 0 43 46" fill="none" xmlns="http://www.w3.org/2000/svg">
<g filter="url(#filter0_di_60_347)">
<path d="M21.5182 4.32129C12.3349 4.32129 4.85156 11.8046 4.85156 20.988C4.85156 30.1713 12.3349 37.6546 21.5182 37.6546C30.7016 37.6546 38.1849 30.1713 38.1849 20.988C38.1849 11.8046 30.7016 4.32129 21.5182 4.32129ZM28.2849 19.7713L22.4016 25.6546C22.1516 25.9046 21.8349 26.0213 21.5182 26.0213C21.2016 26.0213 20.8849 25.9046 20.6349 25.6546L14.7516 19.7713C14.2682 19.288 14.2682 18.488 14.7516 18.0046C15.2349 17.5213 16.0349 17.5213 16.5182 18.0046L21.5182 23.0046L26.5182 18.0046C27.0016 17.5213 27.8016 17.5213 28.2849 18.0046C28.7682 18.488 28.7682 19.2713 28.2849 19.7713Z" fill="url(#paint0_linear_60_347)"/>
</g>
<defs>
<filter id="filter0_di_60_347" x="-2.48242" y="-0.012207" width="48" height="49" filterUnits="userSpaceOnUse" color-interpolation-filters="sRGB">
<feFlood flood-opacity="0" result="BackgroundImageFix"/>
<feColorMatrix in="SourceAlpha" type="matrix" values="0 0 0 0 0 0 0 0 0 0 0 0 0 0 0 0 0 0 127 0" result="hardAlpha"/>
<feOffset dy="4"/>
<feGaussianBlur stdDeviation="2"/>
<feComposite in2="hardAlpha" operator="out"/>
<feColorMatrix type="matrix" values="0 0 0 0 0 0 0 0 0 0 0 0 0 0 0 0 0 0 0.25 0"/>
<feBlend mode="normal" in2="BackgroundImageFix" result="effect1_dropShadow_60_347"/>
<feBlend mode="normal" in="SourceGraphic" in2="effect1_dropShadow_60_347" result="shape"/>
<feColorMatrix in="SourceAlpha" type="matrix" values="0 0 0 0 0 0 0 0 0 0 0 0 0 0 0 0 0 0 127 0" result="hardAlpha"/>
<feOffset dy="-1"/>
<feGaussianBlur stdDeviation="2.4"/>
<feComposite in2="hardAlpha" operator="arithmetic" k2="-1" k3="1"/>
<feColorMatrix type="matrix" values="0 0 0 0 0 0 0 0 0 0 0 0 0 0 0 0 0 0 0.25 0"/>
<feBlend mode="normal" in2="shape" result="effect2_innerShadow_60_347"/>
</filter>
<linearGradient id="paint0_linear_60_347" x1="38.1849" y1="5.43067" x2="2.77838" y2="9.37428" gradientUnits="userSpaceOnUse">
<stop offset="0.253117" stop-color="#7860F2"/>
<stop offset="0.580678" stop-color="#7860F2"/>
<stop offset="1" stop-color="#1380F6"/>
</linearGradient>
</defs>
</svg>
