<svg width="40" height="40" viewBox="0 0 40 40" fill="none" xmlns="http://www.w3.org/2000/svg">
<path d="M19.9993 36.6807C29.1827 36.6807 36.666 29.1973 36.666 20.014C36.666 10.8307 29.1827 3.34733 19.9994 3.34733C10.816 3.34733 3.33269 10.8307 3.33269 20.014C3.33268 29.1973 10.816 36.6807 19.9993 36.6807ZM13.2327 21.2307L19.116 15.3473C19.366 15.0973 19.6827 14.9807 19.9994 14.9807C20.316 14.9807 20.6327 15.0973 20.8827 15.3473L26.766 21.2307C27.2493 21.714 27.2493 22.514 26.766 22.9973C26.2827 23.4807 25.4827 23.4807 24.9994 22.9973L19.9994 17.9973L14.9994 22.9973C14.516 23.4807 13.716 23.4807 13.2327 22.9973C12.7494 22.514 12.7494 21.7307 13.2327 21.2307Z" fill="url(#paint0_linear_2045_59)"/>
<defs>
<linearGradient id="paint0_linear_2045_59" x1="3.33268" y1="35.5713" x2="38.7392" y2="31.6277" gradientUnits="userSpaceOnUse">
<stop offset="0.253117" stop-color="#7860F2"/>
<stop offset="0.580678" stop-color="#7860F2"/>
<stop offset="1" stop-color="#1380F6"/>
</linearGradient>
</defs>
</svg>
