<svg width="153" height="61" viewBox="0 0 153 61" fill="none" xmlns="http://www.w3.org/2000/svg">
<path d="M50.5106 25.5835C50.5106 11.8669 39.3729 0.716797 25.6713 0.716797C11.9698 0.716797 0.832031 11.8669 0.832031 25.5835C0.832031 39.3003 11.9277 50.4503 25.6713 50.4503V60.7168L43.1135 43.2974C47.6526 38.7953 50.5106 32.5261 50.5106 25.5835ZM36.8091 36.9861L25.6713 48.1362V41.5303C16.8872 41.5303 9.74221 34.3774 9.74221 25.5835C9.74221 16.7897 16.8872 9.63683 25.6713 9.63683C34.4555 9.63683 41.6004 16.7897 41.6004 25.5835C41.6004 30.0015 39.8352 33.9566 36.9352 36.8599L36.8091 36.9861Z" fill="#0862F6"/>
<path d="M69.7548 28.3109C68.5648 27.8966 67.6336 27.4304 66.9609 26.8089L67.8405 24.9443C68.4613 25.514 69.2892 25.9802 70.3239 26.3428C71.307 26.7053 72.342 26.8607 73.4285 26.8607C74.8253 26.8607 75.8599 26.6017 76.5323 26.1355C77.2048 25.6694 77.567 25.0479 77.567 24.2709C77.567 23.7011 77.3604 23.235 76.9982 22.8724C76.636 22.5099 76.1702 22.2509 75.6014 22.0437C75.0319 21.8365 74.2557 21.6294 73.273 21.3704C72.0309 21.0596 70.9965 20.7488 70.2204 20.4381C69.4443 20.1272 68.7717 19.6611 68.2026 19.0396C67.6335 18.418 67.3749 17.5374 67.3749 16.5015C67.3749 15.621 67.6335 14.7923 68.0992 14.0671C68.5648 13.342 69.2891 12.7723 70.2722 12.3579C71.2552 11.9435 72.4449 11.6846 73.8425 11.6846C74.8253 11.6846 75.808 11.7881 76.7916 12.0471C77.7744 12.3061 78.6024 12.6687 79.2748 13.1349L78.4987 15.0513C77.7744 14.5851 77.0501 14.2744 76.222 14.0154C75.4459 13.8082 74.6179 13.6528 73.8425 13.6528C72.4968 13.6528 71.4621 13.9118 70.7896 14.3779C70.1169 14.8959 69.7548 15.5174 69.7548 16.2944C69.7548 16.8642 69.9617 17.3303 70.3239 17.6929C70.6861 18.0554 71.2035 18.3144 71.7725 18.5216C72.342 18.7288 73.1174 18.936 74.101 19.1432C75.3422 19.4539 76.3776 19.7647 77.153 20.0755C77.9291 20.3862 78.6024 20.8524 79.1193 21.474C79.6888 22.0955 79.9473 22.9242 79.9473 24.0119C79.9473 24.8925 79.6888 25.7212 79.223 26.4463C78.7571 27.1714 78.0328 27.7412 77.0501 28.1556C76.0665 28.5699 74.8771 28.7772 73.4285 28.7772C72.1346 28.8807 70.893 28.6736 69.7548 28.3109Z" fill="black"/>
<path d="M102.817 17.2262C103.748 18.1585 104.214 19.5569 104.214 21.3698V28.7248H101.886V21.6288C101.886 20.3857 101.575 19.4534 101.058 18.8318C100.489 18.2103 99.6608 17.8995 98.6262 17.8995C97.436 17.8995 96.5051 18.262 95.8319 18.9872C95.1594 19.7123 94.7972 20.7482 94.7972 22.1467V28.7248H92.4696V21.6288C92.4696 20.3857 92.1585 19.4534 91.6416 18.8318C91.072 18.2103 90.2448 17.8995 89.2094 17.8995C88.02 17.8995 87.0883 18.262 86.4158 18.9872C85.7434 19.7123 85.3812 20.7482 85.3812 22.1467V28.7248H83.0527V15.9313H85.2775V17.8477C85.7434 17.1744 86.364 16.7082 87.0883 16.3456C87.8644 15.983 88.6925 15.8276 89.6752 15.8276C90.658 15.8276 91.5379 16.0349 92.314 16.4493C93.0902 16.8636 93.6589 17.4333 94.0729 18.2103C94.5388 17.4852 95.2113 16.9154 96.0911 16.501C96.9702 16.0866 97.9019 15.8795 98.9884 15.8795C100.592 15.8276 101.886 16.2938 102.817 17.2262Z" fill="black"/>
<path d="M117.148 17.1233C118.08 18.0039 118.545 19.2987 118.545 21.008V28.7256H116.372V27.0681C116.01 27.6379 115.441 28.1041 114.717 28.4148C113.992 28.7256 113.164 28.881 112.181 28.881C110.732 28.881 109.595 28.5184 108.767 27.8451C107.887 27.1717 107.473 26.2394 107.473 25.1517C107.473 24.064 107.887 23.1317 108.715 22.4583C109.543 21.785 110.836 21.4224 112.595 21.4224H116.268V20.9563C116.268 19.9721 115.958 19.1952 115.389 18.6772C114.819 18.1593 113.94 17.9003 112.854 17.9003C112.078 17.9003 111.353 18.0039 110.629 18.2629C109.905 18.5219 109.283 18.8326 108.818 19.247L107.835 17.5377C108.508 17.0198 109.283 16.6054 110.163 16.3465C111.095 16.0875 112.026 15.9321 113.061 15.9321C114.871 15.8285 116.217 16.2428 117.148 17.1233ZM114.871 26.4466C115.493 26.0322 115.958 25.5143 116.268 24.7892V23.028H112.698C110.732 23.028 109.749 23.7014 109.749 24.9963C109.749 25.6178 110.008 26.1358 110.474 26.4984C110.991 26.861 111.664 27.0681 112.544 27.0681C113.475 27.0681 114.199 26.861 114.871 26.4466Z" fill="black"/>
<path d="M126.823 16.3974C127.599 16.0349 128.582 15.8276 129.668 15.8276V18.0549C129.564 18.0549 129.358 18.0549 129.15 18.0549C127.909 18.0549 126.926 18.4174 126.201 19.1944C125.477 19.9196 125.115 21.0072 125.115 22.4057V28.7765H122.787V15.9313H125.012V18.1067C125.425 17.3298 126.046 16.76 126.823 16.3974Z" fill="black"/>
<path d="M140.171 27.9493C139.86 28.2601 139.395 28.4672 138.929 28.6226C138.412 28.778 137.946 28.8298 137.377 28.8298C136.083 28.8298 135.101 28.4672 134.376 27.7939C133.652 27.1206 133.342 26.1364 133.342 24.8415V17.8491H131.168V15.9327H133.342V13.1357H135.669V15.9327H139.343V17.8491H135.669V24.7379C135.669 25.4113 135.825 25.981 136.187 26.3436C136.549 26.7062 137.015 26.9133 137.688 26.9133C138.412 26.9133 138.981 26.7062 139.498 26.2918L140.171 27.9493Z" fill="black"/>
<path d="M69.7548 53.1215C68.5648 52.7071 67.6336 52.241 66.9609 51.6194L67.8405 49.7548C68.4613 50.3245 69.2892 50.7907 70.3239 51.1532C71.307 51.5158 72.342 51.6712 73.4285 51.6712C74.8253 51.6712 75.8599 51.4122 76.5323 50.9461C77.2048 50.4799 77.567 49.8583 77.567 49.0814C77.567 48.5117 77.3604 48.0455 76.9982 47.6829C76.636 47.3204 76.1702 47.0614 75.6014 46.8542C75.0319 46.647 74.2557 46.4398 73.273 46.1809C72.0309 45.8701 70.9965 45.5593 70.2204 45.2485C69.4443 44.9378 68.7717 44.4716 68.2026 43.8501C67.6335 43.2285 67.3749 42.348 67.3749 41.3121C67.3749 40.4316 67.6335 39.6028 68.0992 38.8777C68.5648 38.1526 69.2891 37.5828 70.2722 37.1684C71.2552 36.7541 72.4449 36.4951 73.8425 36.4951C74.8253 36.4951 75.808 36.5987 76.7916 36.8577C77.7744 37.1167 78.6024 37.4792 79.2748 37.9453L78.4987 39.8618C77.7744 39.3956 77.0501 39.0848 76.222 38.8259C75.4459 38.6187 74.6179 38.4633 73.8425 38.4633C72.4968 38.4633 71.4621 38.7223 70.7896 39.1885C70.1169 39.7064 69.7548 40.328 69.7548 41.1049C69.7548 41.6746 69.9617 42.1408 70.3239 42.5034C70.6861 42.866 71.2035 43.1249 71.7725 43.3321C72.342 43.5393 73.1174 43.7465 74.101 43.9536C75.3422 44.2644 76.3776 44.5752 77.153 44.886C77.9291 45.1968 78.6024 45.6629 79.1193 46.2844C79.6888 46.906 79.9473 47.7347 79.9473 48.8224C79.9473 49.703 79.6888 50.5317 79.223 51.2568C78.7571 51.982 78.0328 52.5517 77.0501 52.9661C76.0665 53.3805 74.8771 53.5876 73.4285 53.5876C72.1346 53.6912 70.893 53.4841 69.7548 53.1215Z" fill="#0862F6"/>
<path d="M94.5374 47.8896H84.1896C84.3444 49.0291 84.8102 49.9096 85.6901 50.583C86.5173 51.2563 87.5527 51.6188 88.8458 51.6188C90.3463 51.6188 91.5883 51.1009 92.5192 50.065L93.813 51.5671C93.2435 52.2404 92.5192 52.7584 91.6393 53.1209C90.7603 53.4835 89.8285 53.6389 88.7939 53.6389C87.449 53.6389 86.2588 53.3799 85.2242 52.8101C84.1896 52.2404 83.3616 51.4635 82.7928 50.4793C82.2233 49.4952 81.9648 48.3557 81.9648 47.1127C81.9648 45.8695 82.2233 44.7819 82.7928 43.7459C83.3616 42.7618 84.0859 41.9849 85.0687 41.4151C86.0522 40.8454 87.1387 40.5864 88.3289 40.5864C89.5701 40.5864 90.6047 40.8454 91.5883 41.4151C92.5192 41.9849 93.2953 42.7618 93.813 43.7459C94.33 44.73 94.6403 45.8695 94.6403 47.1644C94.5892 47.3716 94.5892 47.6306 94.5374 47.8896ZM85.5345 43.5905C84.8102 44.2639 84.3444 45.1444 84.2415 46.2322H92.3644C92.2607 45.1444 91.7949 44.2639 91.0706 43.5905C90.3463 42.9172 89.4153 42.5546 88.277 42.5546C87.1906 42.6064 86.2588 42.9172 85.5345 43.5905Z" fill="#0862F6"/>
<path d="M108.404 42.0366C109.336 42.969 109.853 44.3675 109.853 46.1803V53.5352H107.524V46.491C107.524 45.248 107.214 44.3156 106.645 43.6941C106.076 43.0726 105.197 42.7617 104.11 42.7617C102.868 42.7617 101.885 43.1243 101.161 43.8495C100.437 44.5746 100.075 45.6105 100.075 47.009V53.5871H97.7461V40.8453H99.9709V42.7617C100.437 42.0885 101.057 41.6223 101.833 41.2597C102.61 40.8971 103.541 40.7417 104.524 40.7417C106.179 40.6382 107.473 41.1043 108.404 42.0366Z" fill="#0862F6"/>
<path d="M126.201 35.6661V53.4838H123.976V51.4637C123.458 52.1889 122.838 52.7068 122.01 53.0694C121.234 53.432 120.355 53.6392 119.423 53.6392C118.182 53.6392 117.095 53.3802 116.112 52.8104C115.129 52.2406 114.353 51.5155 113.836 50.5314C113.266 49.5473 113.008 48.4078 113.008 47.1129C113.008 45.818 113.266 44.6785 113.836 43.7462C114.405 42.762 115.129 41.9851 116.112 41.4672C117.095 40.8974 118.182 40.6385 119.423 40.6385C120.355 40.6385 121.183 40.7939 121.959 41.1564C122.734 41.519 123.356 41.9851 123.872 42.6585V35.6143H126.201V35.6661ZM121.855 51.0494C122.528 50.6868 123.045 50.1689 123.407 49.4437C123.77 48.7704 123.976 47.9935 123.976 47.1129C123.976 46.2323 123.77 45.4554 123.407 44.7821C123.045 44.1088 122.528 43.5908 121.855 43.2282C121.183 42.8657 120.458 42.6585 119.682 42.6585C118.854 42.6585 118.13 42.8657 117.509 43.2282C116.836 43.5908 116.371 44.1088 115.957 44.7821C115.595 45.4554 115.387 46.2323 115.387 47.1129C115.387 47.9935 115.595 48.7704 115.957 49.4437C116.319 50.117 116.836 50.635 117.509 51.0494C118.182 51.4119 118.906 51.6191 119.682 51.6191C120.458 51.6191 121.183 51.4638 121.855 51.0494Z" fill="#0862F6"/>
<path d="M142.033 47.8896H131.686C131.84 49.0291 132.306 49.9096 133.186 50.583C134.013 51.2563 135.049 51.6188 136.342 51.6188C137.842 51.6188 139.084 51.1009 140.015 50.065L141.309 51.5671C140.74 52.2404 140.015 52.7584 139.136 53.1209C138.256 53.4835 137.325 53.6389 136.29 53.6389C134.945 53.6389 133.755 53.3799 132.72 52.8101C131.686 52.2404 130.858 51.4635 130.289 50.4793C129.719 49.4952 129.461 48.3557 129.461 47.1127C129.461 45.8695 129.719 44.7819 130.289 43.7459C130.858 42.7618 131.582 41.9849 132.565 41.4151C133.548 40.8454 134.635 40.5864 135.825 40.5864C137.066 40.5864 138.101 40.8454 139.084 41.4151C140.015 41.9849 140.791 42.7618 141.309 43.7459C141.826 44.73 142.136 45.8695 142.136 47.1644C142.085 47.3716 142.085 47.6306 142.033 47.8896ZM133.031 43.5905C132.306 44.2639 131.84 45.1444 131.738 46.2322H139.912C139.809 45.1444 139.343 44.2639 138.619 43.5905C137.894 42.9172 136.963 42.5546 135.825 42.5546C134.687 42.6064 133.755 42.9172 133.031 43.5905Z" fill="#0862F6"/>
<path d="M149.278 41.208C150.054 40.8453 151.037 40.6382 152.123 40.6382V42.8654C152.02 42.8654 151.813 42.8654 151.606 42.8654C150.364 42.8654 149.381 43.228 148.657 44.0049C147.933 44.73 147.571 45.8178 147.571 47.2163V53.5871H145.242V40.8453H147.467V42.969C147.881 42.1921 148.502 41.6223 149.278 41.208Z" fill="#0862F6"/>
</svg>
