<svg aria-hidden="true" style="position: absolute; width: 0; height: 0; overflow: hidden;" version="1.1" xmlns="http://www.w3.org/2000/svg" xmlns:xlink="http://www.w3.org/1999/xlink">
<defs>
<symbol id="support" viewBox="0 0 31 32">
<path d="M22.759 2.994h-15c-2.075 0-3.75 1.662-3.75 3.713v13.637c0 2.050 1.675 3.712 3.75 3.712h0.95c1 0 1.95 0.387 2.65 1.087l2.138 2.113c0.975 0.962 2.563 0.962 3.538 0l2.137-2.113c0.7-0.7 1.663-1.087 2.65-1.087h0.938c2.075 0 3.75-1.663 3.75-3.712v-13.637c0-2.050-1.675-3.712-3.75-3.712zM13.234 16.756c0.512 0 0.938 0.425 0.938 0.938s-0.425 0.938-0.938 0.938h-3.35c-0.55 0-1.063-0.262-1.387-0.712-0.313-0.425-0.387-0.95-0.238-1.45 0.438-1.338 1.512-2.063 2.463-2.713 1-0.675 1.563-1.1 1.563-1.825 0-0.65-0.525-1.175-1.175-1.175s-1.162 0.537-1.162 1.188c0 0.512-0.425 0.938-0.938 0.938s-0.938-0.425-0.938-0.938c0-1.675 1.363-3.050 3.050-3.050s3.050 1.363 3.050 3.050c0 1.762-1.325 2.662-2.387 3.387-0.662 0.45-1.287 0.875-1.6 1.438h3.050v-0.012zM21.509 16.844h-0.262v0.863c0 0.512-0.425 0.938-0.938 0.938s-0.938-0.425-0.938-0.938v-0.863h-2.45c0 0 0 0-0.012 0-0.613 0-1.175-0.325-1.488-0.85-0.313-0.537-0.313-1.2 0-1.725 0.85-1.463 1.837-3.125 2.738-4.575 0.4-0.637 1.163-0.925 1.875-0.725 0.712 0.213 1.212 0.863 1.2 1.613v4.4h0.275c0.512 0 0.938 0.425 0.938 0.938s-0.425 0.925-0.938 0.925z"></path>
<path d="M19.371 14.969v-3.675c-0.738 1.2-1.5 2.488-2.188 3.662h2.188v0.012z"></path>
</symbol>
<symbol id="arrow-circle-down" viewBox="0 0 30 32">
<path d="M14.969 3.006c-6.388 0-11.594 5.206-11.594 11.594s5.206 11.594 11.594 11.594c6.388 0 11.594-5.206 11.594-11.594s-5.206-11.594-11.594-11.594zM19.676 13.754l-4.093 4.093c-0.174 0.174-0.394 0.255-0.615 0.255s-0.441-0.081-0.614-0.255l-4.093-4.093c-0.336-0.336-0.336-0.893 0-1.229s0.893-0.336 1.229 0l3.478 3.478 3.478-3.478c0.336-0.336 0.893-0.336 1.229 0s0.336 0.881 0 1.229z"></path>
</symbol>
<symbol id="dollar-square" viewBox="0 0 31 32">
<path d="M14.322 10.594v3.575l-1.262-0.438c-0.637-0.225-1.025-0.438-1.025-1.525 0-0.887 0.662-1.613 1.475-1.613h0.813z"></path>
<path d="M18.484 18.781c0 0.887-0.663 1.613-1.475 1.613h-0.813v-3.575l1.262 0.438c0.637 0.225 1.025 0.438 1.025 1.525z"></path>
<path d="M20.496 2.994h-10.475c-4.55 0-7.263 2.713-7.263 7.263v10.475c0 4.55 2.712 7.262 7.263 7.262h10.475c4.55 0 7.262-2.712 7.262-7.262v-10.475c0-4.55-2.712-7.263-7.262-7.263zM18.084 15.494c0.975 0.338 2.275 1.050 2.275 3.287 0 1.925-1.5 3.488-3.35 3.488h-0.813v0.725c0 0.512-0.425 0.938-0.938 0.938s-0.938-0.425-0.938-0.938v-0.725h-0.45c-2.050 0-3.713-1.738-3.713-3.863 0-0.512 0.412-0.938 0.938-0.938 0.512 0 0.938 0.425 0.938 0.938 0 1.1 0.825 1.988 1.838 1.988h0.45v-4.238l-1.887-0.662c-0.975-0.338-2.275-1.050-2.275-3.287 0-1.925 1.5-3.488 3.35-3.488h0.813v-0.725c0-0.513 0.425-0.938 0.938-0.938s0.938 0.425 0.938 0.938v0.725h0.45c2.050 0 3.712 1.738 3.712 3.863 0 0.512-0.413 0.938-0.938 0.938-0.512 0-0.938-0.425-0.938-0.938 0-1.1-0.825-1.988-1.837-1.988h-0.45v4.238l1.887 0.662z"></path>
</symbol>
<symbol id="hero-background" viewBox="0 0 48 32">
<path d="M48.311 0.007h-48.29c2.677 2.245 4.918 1.884 9.074 8.313 3.129 4.84-0.010 9.961 1.252 14.416 2.086 7.366 6.096 6.769 8.344 9.26h29.62v-31.988z"></path>
</symbol>
<symbol id="hero-background-mobile" viewBox="0 0 19 32">
<path d="M0 17.259v-17.259h18.798v31.986c-0.319-1.456-4.893-6.398-8.344-9.334-3.402-2.895-7.693-4.266-10.454-5.393z"></path>
</symbol>
<symbol id="logo" viewBox="0 0 80 32">
<path fill="#0862f6" style="fill: var(--color1, #0862f6)" d="M26.497 13.421c0-7.196-5.843-13.045-13.030-13.045s-13.030 5.849-13.030 13.045c0 7.196 5.821 13.045 13.030 13.045v5.386l9.15-9.138c2.381-2.362 3.88-5.651 3.88-9.293zM19.31 19.403l-5.843 5.849v-3.465c-4.608 0-8.356-3.752-8.356-8.366s3.748-8.365 8.356-8.365c4.608 0 8.356 3.752 8.356 8.365 0 2.318-0.926 4.392-2.447 5.915l-0.066 0.066z"></path>
<path fill="#000" style="fill: var(--color2, #000)" d="M36.593 14.852c-0.624-0.217-1.113-0.462-1.466-0.788l0.461-0.978c0.326 0.299 0.76 0.543 1.303 0.734 0.516 0.19 1.059 0.272 1.629 0.272 0.733 0 1.276-0.136 1.628-0.38s0.543-0.571 0.543-0.978c0-0.299-0.108-0.543-0.298-0.734s-0.434-0.326-0.733-0.435c-0.299-0.109-0.706-0.217-1.221-0.353-0.652-0.163-1.194-0.326-1.601-0.489s-0.76-0.408-1.059-0.734c-0.299-0.326-0.434-0.788-0.434-1.331 0-0.462 0.136-0.897 0.38-1.277s0.624-0.679 1.14-0.897c0.516-0.217 1.14-0.353 1.873-0.353 0.516 0 1.031 0.054 1.547 0.19s0.95 0.326 1.303 0.571l-0.407 1.005c-0.38-0.245-0.76-0.408-1.194-0.543-0.407-0.109-0.842-0.19-1.248-0.19-0.706 0-1.249 0.136-1.602 0.38-0.353 0.272-0.543 0.598-0.543 1.005 0 0.299 0.109 0.543 0.299 0.734s0.461 0.326 0.76 0.435c0.299 0.109 0.706 0.217 1.221 0.326 0.651 0.163 1.194 0.326 1.601 0.489s0.76 0.408 1.032 0.734c0.299 0.326 0.434 0.761 0.434 1.331 0 0.462-0.136 0.897-0.38 1.277s-0.624 0.679-1.14 0.897c-0.516 0.217-1.14 0.326-1.9 0.326-0.679 0.054-1.33-0.054-1.927-0.245z"></path>
<path fill="#000" style="fill: var(--color2, #000)" d="M53.937 9.037c0.488 0.489 0.733 1.223 0.733 2.174v3.858h-1.221v-3.723c0-0.652-0.163-1.141-0.434-1.467-0.298-0.326-0.733-0.489-1.276-0.489-0.624 0-1.113 0.19-1.466 0.571s-0.543 0.924-0.543 1.657v3.451h-1.221v-3.723c0-0.652-0.163-1.141-0.434-1.467-0.299-0.326-0.733-0.489-1.276-0.489-0.624 0-1.113 0.19-1.465 0.571s-0.543 0.924-0.543 1.657v3.451h-1.221v-6.711h1.167v1.005c0.244-0.353 0.57-0.598 0.95-0.788 0.407-0.19 0.842-0.272 1.357-0.272s0.977 0.109 1.384 0.326c0.407 0.217 0.706 0.516 0.923 0.924 0.244-0.38 0.597-0.679 1.059-0.897s0.95-0.326 1.52-0.326c0.841-0.027 1.52 0.217 2.008 0.706z"></path>
<path fill="#000" style="fill: var(--color2, #000)" d="M61.455 8.983c0.489 0.462 0.733 1.141 0.733 2.038v4.049h-1.14v-0.87c-0.19 0.299-0.488 0.543-0.868 0.706s-0.815 0.245-1.33 0.245c-0.76 0-1.357-0.19-1.791-0.543-0.462-0.353-0.679-0.842-0.679-1.413s0.217-1.060 0.652-1.413c0.434-0.353 1.113-0.543 2.035-0.543h1.927v-0.245c0-0.516-0.163-0.924-0.461-1.196s-0.76-0.408-1.33-0.408c-0.407 0-0.787 0.054-1.167 0.19s-0.706 0.299-0.95 0.516l-0.516-0.897c0.353-0.272 0.76-0.489 1.221-0.625 0.489-0.136 0.977-0.217 1.52-0.217 0.95-0.054 1.656 0.163 2.144 0.625zM60.26 13.874c0.326-0.217 0.57-0.489 0.733-0.869v-0.924h-1.873c-1.031 0-1.547 0.353-1.547 1.033 0 0.326 0.136 0.598 0.38 0.788 0.271 0.19 0.624 0.299 1.086 0.299 0.488 0 0.868-0.109 1.221-0.326z"></path>
<path fill="#000" style="fill: var(--color2, #000)" d="M66.53 8.602c0.407-0.19 0.923-0.299 1.492-0.299v1.168c-0.055 0-0.163 0-0.272 0-0.651 0-1.167 0.19-1.547 0.598-0.38 0.38-0.57 0.951-0.57 1.685v3.342h-1.221v-6.738h1.167v1.141c0.217-0.408 0.542-0.706 0.95-0.897z"></path>
<path fill="#000" style="fill: var(--color2, #000)" d="M73.532 14.662c-0.163 0.163-0.407 0.272-0.652 0.353-0.271 0.082-0.516 0.109-0.814 0.109-0.679 0-1.194-0.19-1.574-0.543s-0.542-0.87-0.542-1.549v-3.668h-1.14v-1.005h1.14v-1.467h1.221v1.467h1.927v1.005h-1.927v3.614c0 0.353 0.082 0.652 0.272 0.842s0.434 0.299 0.787 0.299c0.38 0 0.678-0.109 0.95-0.326l0.353 0.87z"></path>
<path fill="#0862f6" style="fill: var(--color1, #0862f6)" d="M36.593 27.867c-0.624-0.217-1.113-0.462-1.466-0.788l0.461-0.978c0.326 0.299 0.76 0.543 1.303 0.734 0.516 0.19 1.059 0.272 1.629 0.272 0.733 0 1.276-0.136 1.628-0.38s0.543-0.571 0.543-0.978c0-0.299-0.108-0.543-0.298-0.734s-0.434-0.326-0.733-0.435c-0.299-0.109-0.706-0.217-1.221-0.353-0.652-0.163-1.194-0.326-1.601-0.489s-0.76-0.408-1.059-0.734c-0.299-0.326-0.434-0.788-0.434-1.331 0-0.462 0.136-0.897 0.38-1.277s0.624-0.679 1.14-0.897c0.516-0.217 1.14-0.353 1.873-0.353 0.516 0 1.031 0.054 1.547 0.19s0.95 0.326 1.303 0.571l-0.407 1.005c-0.38-0.245-0.76-0.408-1.194-0.543-0.407-0.109-0.842-0.19-1.248-0.19-0.706 0-1.249 0.136-1.602 0.38-0.353 0.272-0.543 0.598-0.543 1.005 0 0.299 0.109 0.543 0.299 0.734s0.461 0.326 0.76 0.435c0.299 0.109 0.706 0.217 1.221 0.326 0.651 0.163 1.194 0.326 1.601 0.489s0.76 0.408 1.032 0.734c0.299 0.326 0.434 0.761 0.434 1.331 0 0.462-0.136 0.897-0.38 1.277s-0.624 0.679-1.14 0.897c-0.516 0.217-1.14 0.326-1.9 0.326-0.679 0.054-1.33-0.054-1.927-0.244z"></path>
<path fill="#0862f6" style="fill: var(--color1, #0862f6)" d="M49.593 25.122h-5.428c0.081 0.598 0.326 1.060 0.787 1.413 0.434 0.353 0.977 0.543 1.655 0.543 0.787 0 1.439-0.272 1.927-0.815l0.679 0.788c-0.299 0.353-0.679 0.625-1.14 0.815s-0.95 0.272-1.493 0.272c-0.706 0-1.33-0.136-1.873-0.435s-0.977-0.706-1.276-1.223c-0.299-0.516-0.434-1.114-0.434-1.766s0.136-1.223 0.434-1.766c0.298-0.516 0.678-0.924 1.194-1.223s1.086-0.435 1.71-0.435c0.651 0 1.194 0.136 1.71 0.435 0.488 0.299 0.895 0.706 1.167 1.223s0.434 1.114 0.434 1.793c-0.027 0.109-0.027 0.245-0.054 0.38zM44.871 22.867c-0.38 0.353-0.624 0.815-0.678 1.386h4.261c-0.054-0.571-0.299-1.033-0.679-1.386s-0.868-0.543-1.465-0.543c-0.57 0.027-1.059 0.19-1.439 0.543z"></path>
<path fill="#0862f6" style="fill: var(--color1, #0862f6)" d="M56.868 22.052c0.489 0.489 0.76 1.223 0.76 2.174v3.858h-1.222v-3.695c0-0.652-0.163-1.141-0.461-1.467s-0.76-0.489-1.33-0.489c-0.652 0-1.167 0.19-1.547 0.571s-0.57 0.924-0.57 1.657v3.451h-1.222v-6.684h1.167v1.005c0.245-0.353 0.57-0.598 0.977-0.788s0.896-0.272 1.412-0.272c0.868-0.054 1.547 0.19 2.035 0.679z"></path>
<path fill="#0862f6" style="fill: var(--color1, #0862f6)" d="M66.204 18.71v9.347h-1.167v-1.060c-0.272 0.38-0.597 0.652-1.031 0.842-0.407 0.19-0.868 0.299-1.357 0.299-0.651 0-1.221-0.136-1.737-0.435s-0.923-0.679-1.194-1.196c-0.299-0.516-0.434-1.114-0.434-1.793s0.135-1.277 0.434-1.766c0.298-0.516 0.678-0.924 1.194-1.196 0.516-0.299 1.086-0.435 1.737-0.435 0.489 0 0.923 0.082 1.33 0.272s0.733 0.435 1.004 0.788v-3.695h1.222v0.027zM63.924 26.78c0.353-0.19 0.624-0.462 0.814-0.842 0.19-0.353 0.299-0.761 0.299-1.223s-0.108-0.869-0.299-1.223c-0.19-0.353-0.461-0.625-0.814-0.815s-0.733-0.299-1.14-0.299c-0.434 0-0.814 0.109-1.14 0.299-0.353 0.19-0.597 0.462-0.814 0.815-0.19 0.353-0.299 0.761-0.299 1.223s0.109 0.869 0.299 1.223c0.19 0.353 0.461 0.625 0.814 0.842 0.353 0.19 0.733 0.299 1.14 0.299s0.787-0.081 1.14-0.299z"></path>
<path fill="#0862f6" style="fill: var(--color1, #0862f6)" d="M74.509 25.122h-5.428c0.081 0.598 0.325 1.060 0.787 1.413 0.434 0.353 0.977 0.543 1.656 0.543 0.787 0 1.438-0.272 1.927-0.815l0.679 0.788c-0.299 0.353-0.679 0.625-1.14 0.815s-0.95 0.272-1.493 0.272c-0.706 0-1.33-0.136-1.873-0.435s-0.977-0.706-1.275-1.223c-0.299-0.516-0.434-1.114-0.434-1.766s0.135-1.223 0.434-1.766c0.299-0.516 0.678-0.924 1.194-1.223s1.086-0.435 1.71-0.435c0.651 0 1.194 0.136 1.71 0.435 0.488 0.299 0.895 0.706 1.167 1.223s0.434 1.114 0.434 1.793c-0.027 0.109-0.027 0.245-0.054 0.38zM69.787 22.867c-0.38 0.353-0.625 0.815-0.678 1.386h4.288c-0.054-0.571-0.299-1.033-0.678-1.386s-0.869-0.543-1.466-0.543c-0.597 0.027-1.086 0.19-1.466 0.543z"></path>
<path fill="#0862f6" style="fill: var(--color1, #0862f6)" d="M78.31 21.617c0.407-0.19 0.923-0.299 1.492-0.299v1.168c-0.054 0-0.163 0-0.271 0-0.652 0-1.167 0.19-1.547 0.598-0.38 0.38-0.57 0.951-0.57 1.685v3.342h-1.222v-6.684h1.167v1.114c0.217-0.408 0.543-0.706 0.95-0.924z"></path>
</symbol>
<symbol id="message-search" viewBox="0 0 31 32">
<path d="M21.509 2.994h-12.5c-3.45 0-6.25 2.787-6.25 6.225v8.725c0 3.438 2.8 6.225 6.25 6.225h1.875c0.338 0 0.787 0.225 1 0.5l1.875 2.488c0.825 1.1 2.175 1.1 3 0l1.875-2.488c0.238-0.313 0.613-0.5 1-0.5h1.875c3.45 0 6.25-2.788 6.25-6.225v-8.725c0-3.438-2.8-6.225-6.25-6.225zM19.834 18.656c-0.188 0.188-0.425 0.275-0.663 0.275s-0.475-0.087-0.663-0.275l-0.925-0.925c-0.725 0.475-1.6 0.762-2.537 0.762-2.55 0-4.625-2.075-4.625-4.625s2.063-4.625 4.625-4.625c2.563 0 4.625 2.075 4.625 4.625 0 0.938-0.288 1.813-0.762 2.538l0.925 0.925c0.363 0.363 0.363 0.962 0 1.325z"></path>
</symbol>
<symbol id="profile-2user" viewBox="0 0 31 32">
<path d="M11.685 2.994c-3.275 0-5.938 2.662-5.938 5.938 0 3.213 2.513 5.813 5.787 5.925 0.1-0.012 0.2-0.012 0.275 0 0.025 0 0.037 0 0.063 0 0.012 0 0.012 0 0.025 0 3.2-0.113 5.713-2.713 5.725-5.925 0-3.275-2.662-5.938-5.938-5.938z"></path>
<path d="M18.035 18.181c-3.488-2.325-9.175-2.325-12.688 0-1.587 1.063-2.462 2.5-2.462 4.038s0.875 2.962 2.45 4.012c1.75 1.175 4.050 1.762 6.35 1.762s4.6-0.587 6.35-1.762c1.575-1.063 2.45-2.488 2.45-4.037-0.012-1.538-0.875-2.962-2.45-4.012z"></path>
<path d="M25.422 9.669c0.2 2.425-1.525 4.55-3.913 4.838-0.012 0-0.012 0-0.025 0h-0.038c-0.075 0-0.15 0-0.212 0.025-1.212 0.063-2.325-0.325-3.163-1.037 1.288-1.15 2.025-2.875 1.875-4.75-0.087-1.013-0.438-1.938-0.962-2.725 0.475-0.237 1.025-0.388 1.587-0.438 2.45-0.213 4.637 1.612 4.85 4.088z"></path>
<path d="M27.922 21.231c-0.1 1.212-0.875 2.262-2.175 2.975-1.25 0.688-2.825 1.012-4.387 0.975 0.9-0.813 1.425-1.825 1.525-2.9 0.125-1.55-0.612-3.038-2.087-4.225-0.837-0.663-1.813-1.188-2.875-1.575 2.762-0.8 6.238-0.262 8.375 1.462 1.15 0.925 1.738 2.087 1.625 3.288z"></path>
</symbol>
<symbol id="arrow" viewBox="0 0 32 32">
<path fill="#FFFFFF" d="M19.414 27.414l10-10c0.781-0.781 0.781-2.047 0-2.828l-10-10c-0.781-0.781-2.047-0.781-2.828 0s-0.781 2.047 0 2.828l6.586 6.586h-19.172c-1.105 0-2 0.895-2 2s0.895 2 2 2h19.172l-6.586 6.586c-0.39 0.39-0.586 0.902-0.586 1.414s0.195 1.024 0.586 1.414c0.781 0.781 2.047 0.781 2.828 0z"></path>
</symbol>
<symbol id="logo-white" viewBox="0 0 78 32">
    <path fill="#fff" style="fill: var(--color1, #fff)" d="M25.86 13.761c0-7.080-5.749-12.834-12.82-12.834s-12.82 5.755-12.82 12.834c0 7.080 5.727 12.834 12.82 12.834v5.299l9.002-8.991c2.343-2.324 3.818-5.559 3.818-9.143zM18.789 19.646l-5.749 5.755v-3.409c-4.534 0-8.221-3.692-8.221-8.231s3.688-8.231 8.221-8.231c4.534 0 8.222 3.692 8.222 8.231 0 2.28-0.911 4.322-2.408 5.82l-0.065 0.065z"></path>
    <path fill="#fff" style="fill: var(--color1, #fff)" d="M35.793 15.169c-0.614-0.214-1.095-0.454-1.442-0.775l0.454-0.962c0.32 0.294 0.748 0.535 1.282 0.722 0.507 0.187 1.042 0.267 1.602 0.267 0.721 0 1.255-0.134 1.602-0.374s0.534-0.561 0.534-0.962c0-0.294-0.107-0.535-0.294-0.722s-0.427-0.321-0.721-0.428c-0.294-0.107-0.695-0.214-1.202-0.347-0.641-0.16-1.175-0.321-1.576-0.481s-0.748-0.401-1.041-0.722c-0.294-0.321-0.427-0.775-0.427-1.31 0-0.454 0.133-0.882 0.374-1.256s0.614-0.668 1.122-0.882c0.507-0.214 1.121-0.348 1.843-0.348 0.507 0 1.014 0.053 1.522 0.187s0.935 0.321 1.282 0.561l-0.401 0.989c-0.374-0.241-0.748-0.401-1.175-0.535-0.401-0.107-0.828-0.187-1.228-0.187-0.694 0-1.229 0.134-1.576 0.374-0.347 0.267-0.534 0.588-0.534 0.989 0 0.294 0.107 0.535 0.294 0.722s0.454 0.321 0.748 0.428c0.294 0.107 0.694 0.214 1.202 0.321 0.641 0.16 1.175 0.321 1.575 0.481s0.748 0.401 1.015 0.722c0.294 0.321 0.427 0.749 0.427 1.31 0 0.454-0.133 0.882-0.374 1.256s-0.614 0.668-1.122 0.882c-0.508 0.214-1.122 0.321-1.869 0.321-0.668 0.053-1.309-0.053-1.896-0.241z"></path>
    <path fill="#fff" style="fill: var(--color1, #fff)" d="M52.858 9.448c0.481 0.481 0.721 1.203 0.721 2.139v3.796h-1.202v-3.662c0-0.642-0.16-1.123-0.427-1.444-0.293-0.321-0.721-0.481-1.255-0.481-0.614 0-1.095 0.187-1.442 0.561s-0.534 0.909-0.534 1.631v3.395h-1.201v-3.662c0-0.642-0.161-1.123-0.427-1.444-0.294-0.321-0.721-0.481-1.255-0.481-0.614 0-1.095 0.187-1.442 0.561s-0.534 0.909-0.534 1.631v3.395h-1.202v-6.603h1.148v0.989c0.24-0.348 0.561-0.588 0.935-0.775 0.401-0.187 0.828-0.267 1.335-0.267s0.961 0.107 1.362 0.321c0.401 0.214 0.694 0.508 0.908 0.909 0.241-0.374 0.588-0.668 1.042-0.882s0.935-0.321 1.495-0.321c0.828-0.027 1.495 0.214 1.976 0.695z"></path>
    <path fill="#fff" style="fill: var(--color1, #fff)" d="M60.254 9.394c0.481 0.454 0.721 1.123 0.721 2.005v3.983h-1.121v-0.855c-0.187 0.294-0.481 0.535-0.854 0.695s-0.801 0.241-1.309 0.241c-0.748 0-1.335-0.187-1.763-0.535-0.454-0.348-0.668-0.829-0.668-1.39s0.214-1.043 0.641-1.39 1.095-0.535 2.003-0.535h1.896v-0.241c0-0.508-0.16-0.909-0.454-1.176s-0.748-0.401-1.309-0.401c-0.401 0-0.774 0.053-1.148 0.187s-0.694 0.294-0.934 0.508l-0.508-0.882c0.347-0.267 0.748-0.481 1.202-0.615 0.481-0.134 0.961-0.214 1.495-0.214 0.935-0.053 1.629 0.16 2.11 0.615zM59.079 14.206c0.321-0.214 0.561-0.481 0.721-0.855v-0.909h-1.842c-1.015 0-1.522 0.348-1.522 1.016 0 0.321 0.133 0.588 0.374 0.775 0.267 0.187 0.614 0.294 1.068 0.294 0.48 0 0.854-0.107 1.201-0.321z"></path>
    <path fill="#fff" style="fill: var(--color1, #fff)" d="M65.248 9.020c0.401-0.187 0.908-0.294 1.469-0.294v1.15c-0.054 0-0.16 0-0.267 0-0.641 0-1.148 0.187-1.522 0.588-0.374 0.374-0.561 0.936-0.561 1.658v3.288h-1.201v-6.63h1.148v1.123c0.213-0.401 0.534-0.695 0.935-0.882z"></path>
    <path fill="#fff" style="fill: var(--color1, #fff)" d="M72.137 14.982c-0.16 0.16-0.401 0.267-0.641 0.348-0.267 0.080-0.507 0.107-0.801 0.107-0.668 0-1.175-0.187-1.549-0.535s-0.534-0.855-0.534-1.524v-3.609h-1.122v-0.989h1.122v-1.444h1.201v1.444h1.896v0.989h-1.896v3.555c0 0.348 0.080 0.642 0.267 0.829s0.427 0.294 0.775 0.294c0.374 0 0.667-0.107 0.934-0.321l0.347 0.855z"></path>
    <path fill="#fff" style="fill: var(--color1, #fff)" d="M35.793 27.974c-0.614-0.214-1.095-0.454-1.442-0.775l0.454-0.962c0.32 0.294 0.748 0.535 1.282 0.722 0.507 0.187 1.042 0.267 1.602 0.267 0.721 0 1.255-0.134 1.602-0.374s0.534-0.561 0.534-0.962c0-0.294-0.107-0.535-0.294-0.722s-0.427-0.321-0.721-0.428c-0.294-0.107-0.695-0.214-1.202-0.348-0.641-0.16-1.175-0.321-1.576-0.481s-0.748-0.401-1.041-0.722c-0.294-0.321-0.427-0.775-0.427-1.31 0-0.454 0.133-0.882 0.374-1.256s0.614-0.668 1.122-0.882c0.507-0.214 1.121-0.348 1.843-0.348 0.507 0 1.014 0.053 1.522 0.187s0.935 0.321 1.282 0.561l-0.401 0.989c-0.374-0.241-0.748-0.401-1.175-0.535-0.401-0.107-0.828-0.187-1.228-0.187-0.694 0-1.229 0.134-1.576 0.374-0.347 0.267-0.534 0.588-0.534 0.989 0 0.294 0.107 0.535 0.294 0.722s0.454 0.321 0.748 0.428c0.294 0.107 0.694 0.214 1.202 0.321 0.641 0.16 1.175 0.321 1.575 0.481s0.748 0.401 1.015 0.722c0.294 0.321 0.427 0.748 0.427 1.31 0 0.454-0.133 0.882-0.374 1.256s-0.614 0.668-1.122 0.882c-0.508 0.214-1.122 0.321-1.869 0.321-0.668 0.053-1.309-0.053-1.896-0.241z"></path>
    <path fill="#fff" style="fill: var(--color1, #fff)" d="M48.584 25.273h-5.341c0.080 0.588 0.32 1.043 0.774 1.39 0.427 0.347 0.961 0.535 1.629 0.535 0.774 0 1.415-0.267 1.896-0.802l0.668 0.775c-0.294 0.347-0.668 0.615-1.122 0.802s-0.935 0.267-1.469 0.267c-0.694 0-1.308-0.134-1.842-0.428s-0.961-0.695-1.255-1.203c-0.294-0.508-0.427-1.096-0.427-1.738s0.133-1.203 0.427-1.738c0.294-0.508 0.667-0.909 1.175-1.203s1.068-0.428 1.683-0.428c0.641 0 1.175 0.134 1.682 0.428 0.481 0.294 0.881 0.695 1.148 1.203s0.427 1.096 0.427 1.764c-0.026 0.107-0.026 0.241-0.053 0.374zM43.937 23.055c-0.374 0.348-0.614 0.802-0.667 1.363h4.193c-0.054-0.561-0.294-1.016-0.668-1.363s-0.854-0.535-1.442-0.535c-0.561 0.027-1.042 0.187-1.416 0.535z"></path>
    <path fill="#fff" style="fill: var(--color1, #fff)" d="M55.741 22.253c0.481 0.481 0.748 1.203 0.748 2.139v3.796h-1.202v-3.636c0-0.642-0.16-1.123-0.454-1.444s-0.748-0.481-1.309-0.481c-0.641 0-1.148 0.187-1.522 0.561s-0.561 0.909-0.561 1.631v3.395h-1.202v-6.576h1.148v0.989c0.24-0.347 0.561-0.588 0.961-0.775s0.881-0.267 1.389-0.267c0.854-0.053 1.522 0.187 2.003 0.668z"></path>
    <path fill="#fff" style="fill: var(--color1, #fff)" d="M64.926 18.965v9.196h-1.148v-1.043c-0.267 0.374-0.588 0.642-1.015 0.829-0.401 0.187-0.854 0.294-1.335 0.294-0.641 0-1.201-0.134-1.709-0.428s-0.908-0.668-1.175-1.176c-0.294-0.508-0.427-1.096-0.427-1.764s0.133-1.256 0.427-1.738c0.294-0.508 0.667-0.909 1.175-1.176 0.508-0.294 1.068-0.428 1.709-0.428 0.481 0 0.908 0.080 1.309 0.267s0.721 0.428 0.988 0.775v-3.636h1.202v0.027zM62.683 26.905c0.347-0.187 0.614-0.454 0.801-0.829 0.187-0.347 0.294-0.748 0.294-1.203s-0.107-0.855-0.294-1.203c-0.187-0.348-0.454-0.615-0.801-0.802s-0.721-0.294-1.121-0.294c-0.427 0-0.801 0.107-1.122 0.294-0.347 0.187-0.588 0.454-0.801 0.802-0.187 0.348-0.294 0.748-0.294 1.203s0.107 0.856 0.294 1.203c0.187 0.348 0.454 0.615 0.801 0.829 0.347 0.187 0.721 0.294 1.122 0.294s0.774-0.080 1.121-0.294z"></path>
    <path fill="#fff" style="fill: var(--color1, #fff)" d="M73.098 25.273h-5.341c0.080 0.588 0.32 1.043 0.775 1.39 0.427 0.347 0.961 0.535 1.629 0.535 0.775 0 1.416-0.267 1.896-0.802l0.668 0.775c-0.294 0.347-0.668 0.615-1.122 0.802s-0.935 0.267-1.469 0.267c-0.694 0-1.308-0.134-1.842-0.428s-0.961-0.695-1.255-1.203c-0.294-0.508-0.427-1.096-0.427-1.738s0.133-1.203 0.427-1.738c0.293-0.508 0.667-0.909 1.175-1.203s1.068-0.428 1.683-0.428c0.641 0 1.175 0.134 1.682 0.428 0.48 0.294 0.881 0.695 1.148 1.203s0.427 1.096 0.427 1.764c-0.026 0.107-0.026 0.241-0.053 0.374zM68.451 23.055c-0.374 0.348-0.614 0.802-0.667 1.363h4.219c-0.053-0.561-0.294-1.016-0.667-1.363s-0.855-0.535-1.442-0.535c-0.588 0.027-1.068 0.187-1.442 0.535z"></path>
    <path fill="#fff" style="fill: var(--color1, #fff)" d="M76.837 21.825c0.401-0.187 0.908-0.294 1.469-0.294v1.15c-0.053 0-0.16 0-0.267 0-0.641 0-1.148 0.187-1.522 0.588-0.374 0.374-0.561 0.936-0.561 1.657v3.288h-1.202v-6.576h1.148v1.096c0.214-0.401 0.534-0.695 0.934-0.909z"></path>
    </symbol>
</defs>
</svg>
